<svg id="Group_61590" data-name="Group 61590" xmlns="http://www.w3.org/2000/svg" xmlns:xlink="http://www.w3.org/1999/xlink" width="430" height="275" viewBox="0 0 430 275">
  <defs>
    <linearGradient id="linear-gradient" x2="1" y2="1" gradientUnits="objectBoundingBox">
      <stop offset="0" stop-color="#b43d81"/>
      <stop offset="1" stop-color="#238288"/>
    </linearGradient>
    <clipPath id="clip-path">
      <rect id="Rectangle_2882" data-name="Rectangle 2882" width="315.534" height="37.648" fill="#fff"/>
    </clipPath>
  </defs>
  <g id="Group_61588" data-name="Group 61588">
    <rect id="Rectangle_2883" data-name="Rectangle 2883" width="430" height="275" fill="url(#linear-gradient)"/>
    <g id="Group_61586" data-name="Group 61586" transform="translate(57 119)">
      <rect id="Rectangle_2881" data-name="Rectangle 2881" width="12.324" height="12.324" transform="translate(0 0)" fill="#fff"/>
      <path id="Path_19299" data-name="Path 19299" d="M14.6,0V12.324H26.924v24.65H39.248V12.324L26.924,0Z" transform="translate(10.048)" fill="#fff"/>
      <path id="Path_19300" data-name="Path 19300" d="M29.2,0V12.324H41.525v24.65H53.85V12.324L41.525,0Z" transform="translate(20.097)" fill="#fff"/>
      <path id="Path_19301" data-name="Path 19301" d="M7.3,7.3V31.95H19.624V7.3Z" transform="translate(5.024 5.024)" fill="#fff"/>
      <path id="Path_19302" data-name="Path 19302" d="M71.9,7.3,65.655,22.663,59.239,7.3H53.5v24.48h4.389V15.572h.169l5.4,13.339h3.712L72.914,15.4V31.95h4.727V7.3Z" transform="translate(36.821 5.024)" fill="#fff"/>
      <g id="Group_61585" data-name="Group 61585" transform="translate(0 0)">
        <g id="Group_61584" data-name="Group 61584" transform="translate(0 0)" clip-path="url(#clip-path)">
          <path id="Path_19303" data-name="Path 19303" d="M69.8,24.368c0-3.376,3.208-5.4,6.415-5.4h4.727V17.278c0-2.026-1.182-2.7-3.208-2.7-1.688,0-3.208.675-3.208,1.688v.675H70.813v-.506c0-3.883,3.714-5.234,6.922-5.234,3.883,0,7.6,1.182,7.6,5.74v8.61a24.969,24.969,0,0,0,.169,3.714H81.28c0-.169-.169-1.182-.169-1.688-1.519,1.688-3.039,2.026-5.234,2.026-3.545,0-6.078-2.026-6.078-5.234M80.942,22.68V22H76.722c-1.688,0-3.039.675-3.039,2.195s1.182,2.195,3.208,2.195c3.545,0,4.052-1.857,4.052-3.714" transform="translate(48.04 7.708)" fill="#fff"/>
          <path id="Path_19304" data-name="Path 19304" d="M80.8,26.532l3.039-2.195a5.864,5.864,0,0,0,4.9,2.195c1.688,0,3.376-.506,3.376-2.195,0-1.519-1.013-1.688-3.208-2.195l-2.195-.506c-3.039-.506-4.9-2.026-4.9-4.727,0-3.714,3.208-5.909,6.922-5.909,3.208,0,5.4.675,6.922,3.039l-3.039,2.026a6.632,6.632,0,0,0-3.883-1.182c-1.688,0-3.039.675-3.039,2.026s1.519,1.519,3.376,1.688l2.7.506C94.812,19.61,96.5,21.3,96.5,24c0,4.221-4.221,5.909-7.935,5.909C85.7,29.74,82.488,28.9,80.8,26.532" transform="translate(55.61 7.571)" fill="#fff"/>
          <path id="Path_19305" data-name="Path 19305" d="M93.332,27.108V16.979H90.8V13.6h2.532V8.2h4.558v5.4h3.883v3.376H97.891V26.1a1.514,1.514,0,0,0,1.688,1.688,9.627,9.627,0,0,0,2.195-.169v3.714a22.679,22.679,0,0,1-3.208.169c-3.039.169-5.234-1.182-5.234-4.389" transform="translate(62.493 5.644)" fill="#fff"/>
          <path id="Path_19306" data-name="Path 19306" d="M98.3,22.274V18.9c0-4.9,3.714-7.6,8.1-7.6,3.883,0,7.6,2.195,7.6,6.922V21.6H102.858v1.013c0,2.195,1.688,3.376,4.221,3.376a5.127,5.127,0,0,0,3.883-2.195l3.208,2.026c-1.519,2.7-4.221,3.883-7.428,3.883-4.389,0-8.441-2.532-8.441-7.428m11.649-3.714v-.506a3.092,3.092,0,0,0-3.376-3.376,3.524,3.524,0,0,0-3.714,3.714v.169Z" transform="translate(67.655 7.777)" fill="#fff"/>
          <path id="Path_19307" data-name="Path 19307" d="M109.9,11.469h4.221v3.039c1.013-2.026,3.714-3.208,5.74-3.208h1.519v3.883h-1.519c-3.208,0-5.74,1.688-5.74,5.234v8.948H109.9Z" transform="translate(75.638 7.777)" fill="#fff"/>
          <path id="Path_19308" data-name="Path 19308" d="M184.775,7.806H184.1V7.3h2.026v.506h-.675V10h-.506V7.806Z" transform="translate(126.706 5.024)" fill="#fff"/>
          <path id="Path_19309" data-name="Path 19309" d="M185.569,7.3h.506l.675,1.688.675-1.688h.506V10h-.506V8.313l-.506,1.519h-.506l-.506-1.519V10H185.4V7.3Z" transform="translate(127.601 5.024)" fill="#fff"/>
          <path id="Path_19310" data-name="Path 19310" d="M118,24.051V16.117C118,10.208,122.389,7,127.792,7c4.727,0,9.454,2.7,9.454,8.1v.675h-4.389V15.61c0-3.208-2.7-4.389-4.9-4.389-2.532,0-5.234,1.182-5.234,4.727v7.935c0,3.039,2.532,4.727,5.4,4.727,2.195,0,4.9-1.182,4.9-4.389v-.169h4.389v.675c0,5.4-4.389,8.1-9.117,8.1-5.571-.169-10.3-3.376-10.3-8.779" transform="translate(81.213 4.818)" fill="#fff"/>
          <path id="Path_19311" data-name="Path 19311" d="M131.3,22.611V18.728c0-4.727,4.221-7.428,7.935-7.428,4.221,0,8.1,3.039,8.1,7.428v3.714c0,4.727-4.221,7.428-7.935,7.428-4.389-.169-8.1-2.7-8.1-7.259m11.987,0V18.222c0-2.195-1.688-3.376-3.883-3.376a3.447,3.447,0,0,0-3.714,3.376v4.389c0,2.195,1.688,3.376,3.883,3.376a3.447,3.447,0,0,0,3.714-3.376" transform="translate(90.367 7.777)" fill="#fff"/>
          <path id="Path_19312" data-name="Path 19312" d="M142.6,11.538h4.221v2.195a5.933,5.933,0,0,1,4.9-2.532c3.883,0,6.247,2.532,6.247,6.584V29.1h-4.221V18.8c0-2.7-1.182-4.221-3.208-4.221-2.195,0-3.714,1.519-3.714,4.389v9.792H142.6Z" transform="translate(98.144 7.708)" fill="#fff"/>
          <path id="Path_19313" data-name="Path 19313" d="M155.732,27.108V16.979H153.2V13.6h2.532V8.2h4.221v5.4h3.883v3.376h-3.883V26.1a1.514,1.514,0,0,0,1.688,1.688,11.206,11.206,0,0,0,2.195-.169v3.714a22.679,22.679,0,0,1-3.208.169c-2.7.169-4.9-1.182-4.9-4.389" transform="translate(105.44 5.644)" fill="#fff"/>
          <path id="Path_19314" data-name="Path 19314" d="M161,11.469h4.221v3.039c1.013-2.026,3.714-3.208,5.74-3.208h1.519v3.883h-1.519c-3.208,0-5.74,1.688-5.74,5.234v8.948H161Z" transform="translate(110.808 7.777)" fill="#fff"/>
          <path id="Path_19315" data-name="Path 19315" d="M168.6,22.611V18.728c0-4.727,4.221-7.428,7.935-7.428,4.221,0,8.1,3.039,8.1,7.428v3.714c0,4.727-4.221,7.428-7.935,7.428-4.389-.169-8.1-2.7-8.1-7.259m11.818,0V18.222c0-2.195-1.688-3.376-3.883-3.376a3.447,3.447,0,0,0-3.714,3.376v4.389c0,2.195,1.688,3.376,3.883,3.376a3.447,3.447,0,0,0,3.714-3.376" transform="translate(116.039 7.777)" fill="#fff"/>
          <path id="Path_19316" data-name="Path 19316" d="M179.8,27.221V7.3h4.221V27.221a1.507,1.507,0,0,0,1.519,1.519,8.921,8.921,0,0,0,2.026-.169V31.78a20.254,20.254,0,0,1-3.376.506c-4.052,0-4.389-3.545-4.389-5.065" transform="translate(123.747 5.024)" fill="#fff"/>
        </g>
      </g>
    </g>
  </g>
</svg>
